<?xml version="1.0" encoding="UTF-8"?>
<svg xmlns="http://www.w3.org/2000/svg" version="1.1" width="500" height="500" viewBox="0 0 500 500"><rect x="0" y="0" width="500" height="500" fill="#ffffff"/><g transform="scale(18.519)"><g transform="translate(1,1)"><g><g transform="translate(3.5,3.5)"><path fill-rule="evenodd" d="M-3.5 -3.5L3.5 -3.5L3.5 3.5L-3.5 3.5ZM-2.5 -2.5L-2.5 2.5L2.5 2.5L2.5 -2.5Z" fill="#000000"/><path fill-rule="evenodd" d="M-1.5 -1.5L1.5 -1.5L1.5 1.5L-1.5 1.5Z" fill="#000000"/></g></g><g><g transform="translate(21.5,3.5)"><g transform="rotate(90)"><path fill-rule="evenodd" d="M-3.5 -3.5L3.5 -3.5L3.5 3.5L-3.5 3.5ZM-2.5 -2.5L-2.5 2.5L2.5 2.5L2.5 -2.5Z" fill="#000000"/><path fill-rule="evenodd" d="M-1.5 -1.5L1.5 -1.5L1.5 1.5L-1.5 1.5Z" fill="#000000"/></g></g></g><g><g transform="translate(3.5,21.5)"><g transform="rotate(-90)"><path fill-rule="evenodd" d="M-3.5 -3.5L3.5 -3.5L3.5 3.5L-3.5 3.5ZM-2.5 -2.5L-2.5 2.5L2.5 2.5L2.5 -2.5Z" fill="#000000"/><path fill-rule="evenodd" d="M-1.5 -1.5L1.5 -1.5L1.5 1.5L-1.5 1.5Z" fill="#000000"/></g></g></g><defs><linearGradient gradientUnits="userSpaceOnUse" x1="0" y1="0" x2="0" y2="25" id="g1"><stop offset="0%" stop-color="#d61616"/><stop offset="100%" stop-color="#05ff12"/></linearGradient></defs><path fill-rule="evenodd" d="M8.9 0.5C8.9 0.5 8.5 0.9 8.5 0.9C8.1 0.5 8.5 0.9 8.1 0.5A0.1 0.1 0 0 1 8.5 0.1A0.1 0.1 0 0 1 8.9 0.5ZM9.9 0.5C9.9 0.5 9.5 0.9 9.5 0.9C9.1 0.5 9.5 0.9 9.1 0.5A0.1 0.1 0 0 1 9.5 0.1A0.1 0.1 0 0 1 9.9 0.5ZM13.9 0.5C13.9 0.5 13.5 0.9 13.5 0.9C13.1 0.5 13.5 0.9 13.1 0.5A0.1 0.1 0 0 1 13.5 0.1A0.1 0.1 0 0 1 13.9 0.5ZM11.9 1.5C11.9 1.5 11.5 1.9 11.5 1.9C11.1 1.5 11.5 1.9 11.1 1.5A0.1 0.1 0 0 1 11.5 1.1A0.1 0.1 0 0 1 11.9 1.5ZM13.9 1.5C13.9 1.5 13.5 1.9 13.5 1.9C13.1 1.5 13.5 1.9 13.1 1.5A0.1 0.1 0 0 1 13.5 1.1A0.1 0.1 0 0 1 13.9 1.5ZM14.9 1.5C14.9 1.5 14.5 1.9 14.5 1.9C14.1 1.5 14.5 1.9 14.1 1.5A0.1 0.1 0 0 1 14.5 1.1A0.1 0.1 0 0 1 14.9 1.5ZM8.9 2.5C8.9 2.5 8.5 2.9 8.5 2.9C8.1 2.5 8.5 2.9 8.1 2.5A0.1 0.1 0 0 1 8.5 2.1A0.1 0.1 0 0 1 8.9 2.5ZM9.9 2.5C9.9 2.5 9.5 2.9 9.5 2.9C9.1 2.5 9.5 2.9 9.1 2.5A0.1 0.1 0 0 1 9.5 2.1A0.1 0.1 0 0 1 9.9 2.5ZM12.9 2.5C12.9 2.5 12.5 2.9 12.5 2.9C12.1 2.5 12.5 2.9 12.1 2.5A0.1 0.1 0 0 1 12.5 2.1A0.1 0.1 0 0 1 12.9 2.5ZM13.9 2.5C13.9 2.5 13.5 2.9 13.5 2.9C13.1 2.5 13.5 2.9 13.1 2.5A0.1 0.1 0 0 1 13.5 2.1A0.1 0.1 0 0 1 13.9 2.5ZM14.9 2.5C14.9 2.5 14.5 2.9 14.5 2.9C14.1 2.5 14.5 2.9 14.1 2.5A0.1 0.1 0 0 1 14.5 2.1A0.1 0.1 0 0 1 14.9 2.5ZM12.9 3.5C12.9 3.5 12.5 3.9 12.5 3.9C12.1 3.5 12.5 3.9 12.1 3.5A0.1 0.1 0 0 1 12.5 3.1A0.1 0.1 0 0 1 12.9 3.5ZM14.9 3.5C14.9 3.5 14.5 3.9 14.5 3.9C14.1 3.5 14.5 3.9 14.1 3.5A0.1 0.1 0 0 1 14.5 3.1A0.1 0.1 0 0 1 14.9 3.5ZM16.9 3.5C16.9 3.5 16.5 3.9 16.5 3.9C16.1 3.5 16.5 3.9 16.1 3.5A0.1 0.1 0 0 1 16.5 3.1A0.1 0.1 0 0 1 16.9 3.5ZM9.9 4.5C9.9 4.5 9.5 4.9 9.5 4.9C9.1 4.5 9.5 4.9 9.1 4.5A0.1 0.1 0 0 1 9.5 4.1A0.1 0.1 0 0 1 9.9 4.5ZM12.9 4.5C12.9 4.5 12.5 4.9 12.5 4.9C12.1 4.5 12.5 4.9 12.1 4.5A0.1 0.1 0 0 1 12.5 4.1A0.1 0.1 0 0 1 12.9 4.5ZM13.9 4.5C13.9 4.5 13.5 4.9 13.5 4.9C13.1 4.5 13.5 4.9 13.1 4.5A0.1 0.1 0 0 1 13.5 4.1A0.1 0.1 0 0 1 13.9 4.5ZM15.9 4.5C15.9 4.5 15.5 4.9 15.5 4.9C15.1 4.5 15.5 4.9 15.1 4.5A0.1 0.1 0 0 1 15.5 4.1A0.1 0.1 0 0 1 15.9 4.5ZM16.9 4.5C16.9 4.5 16.5 4.9 16.5 4.9C16.1 4.5 16.5 4.9 16.1 4.5A0.1 0.1 0 0 1 16.5 4.1A0.1 0.1 0 0 1 16.9 4.5ZM8.9 5.5C8.9 5.5 8.5 5.9 8.5 5.9C8.1 5.5 8.5 5.9 8.1 5.5A0.1 0.1 0 0 1 8.5 5.1A0.1 0.1 0 0 1 8.9 5.5ZM9.9 5.5C9.9 5.5 9.5 5.9 9.5 5.9C9.1 5.5 9.5 5.9 9.1 5.5A0.1 0.1 0 0 1 9.5 5.1A0.1 0.1 0 0 1 9.9 5.5ZM11.9 5.5C11.9 5.5 11.5 5.9 11.5 5.9C11.1 5.5 11.5 5.9 11.1 5.5A0.1 0.1 0 0 1 11.5 5.1A0.1 0.1 0 0 1 11.9 5.5ZM13.9 5.5C13.9 5.5 13.5 5.9 13.5 5.9C13.1 5.5 13.5 5.9 13.1 5.5A0.1 0.1 0 0 1 13.5 5.1A0.1 0.1 0 0 1 13.9 5.5ZM8.9 6.5C8.9 6.5 8.5 6.9 8.5 6.9C8.1 6.5 8.5 6.9 8.1 6.5A0.1 0.1 0 0 1 8.5 6.1A0.1 0.1 0 0 1 8.9 6.5ZM10.9 6.5C10.9 6.5 10.5 6.9 10.5 6.9C10.1 6.5 10.5 6.9 10.1 6.5A0.1 0.1 0 0 1 10.5 6.1A0.1 0.1 0 0 1 10.9 6.5ZM12.9 6.5C12.9 6.5 12.5 6.9 12.5 6.9C12.1 6.5 12.5 6.9 12.1 6.5A0.1 0.1 0 0 1 12.5 6.1A0.1 0.1 0 0 1 12.9 6.5ZM14.9 6.5C14.9 6.5 14.5 6.9 14.5 6.9C14.1 6.5 14.5 6.9 14.1 6.5A0.1 0.1 0 0 1 14.5 6.1A0.1 0.1 0 0 1 14.9 6.5ZM16.9 6.5C16.9 6.5 16.5 6.9 16.5 6.9C16.1 6.5 16.5 6.9 16.1 6.5A0.1 0.1 0 0 1 16.5 6.1A0.1 0.1 0 0 1 16.9 6.5ZM9.9 7.5C9.9 7.5 9.5 7.9 9.5 7.9C9.1 7.5 9.5 7.9 9.1 7.5A0.1 0.1 0 0 1 9.5 7.1A0.1 0.1 0 0 1 9.9 7.5ZM10.9 7.5C10.9 7.5 10.5 7.9 10.5 7.9C10.1 7.5 10.5 7.9 10.1 7.5A0.1 0.1 0 0 1 10.5 7.1A0.1 0.1 0 0 1 10.9 7.5ZM11.9 7.5C11.9 7.5 11.5 7.9 11.5 7.9C11.1 7.5 11.5 7.9 11.1 7.5A0.1 0.1 0 0 1 11.5 7.1A0.1 0.1 0 0 1 11.9 7.5ZM13.9 7.5C13.9 7.5 13.5 7.9 13.5 7.9C13.1 7.5 13.5 7.9 13.1 7.5A0.1 0.1 0 0 1 13.5 7.1A0.1 0.1 0 0 1 13.9 7.5ZM15.9 7.5C15.9 7.5 15.5 7.9 15.5 7.9C15.1 7.5 15.5 7.9 15.1 7.5A0.1 0.1 0 0 1 15.5 7.1A0.1 0.1 0 0 1 15.9 7.5ZM16.9 7.5C16.9 7.5 16.5 7.9 16.5 7.9C16.1 7.5 16.5 7.9 16.1 7.5A0.1 0.1 0 0 1 16.5 7.1A0.1 0.1 0 0 1 16.9 7.5ZM0.9 8.5C0.9 8.5 0.5 8.9 0.5 8.9C0.1 8.5 0.5 8.9 0.1 8.5A0.1 0.1 0 0 1 0.5 8.1A0.1 0.1 0 0 1 0.9 8.5ZM2.9 8.5C2.9 8.5 2.5 8.9 2.5 8.9C2.1 8.5 2.5 8.9 2.1 8.5A0.1 0.1 0 0 1 2.5 8.1A0.1 0.1 0 0 1 2.9 8.5ZM6.9 8.5C6.9 8.5 6.5 8.9 6.5 8.9C6.1 8.5 6.5 8.9 6.1 8.5A0.1 0.1 0 0 1 6.5 8.1A0.1 0.1 0 0 1 6.9 8.5ZM7.9 8.5C7.9 8.5 7.5 8.9 7.5 8.9C7.1 8.5 7.5 8.9 7.1 8.5A0.1 0.1 0 0 1 7.5 8.1A0.1 0.1 0 0 1 7.9 8.5ZM12.9 8.5C12.9 8.5 12.5 8.9 12.5 8.9C12.1 8.5 12.5 8.9 12.1 8.5A0.1 0.1 0 0 1 12.5 8.1A0.1 0.1 0 0 1 12.9 8.5ZM15.9 8.5C15.9 8.5 15.5 8.9 15.5 8.9C15.1 8.5 15.5 8.9 15.1 8.5A0.1 0.1 0 0 1 15.5 8.1A0.1 0.1 0 0 1 15.9 8.5ZM16.9 8.5C16.9 8.5 16.5 8.9 16.5 8.9C16.1 8.5 16.5 8.9 16.1 8.5A0.1 0.1 0 0 1 16.5 8.1A0.1 0.1 0 0 1 16.9 8.5ZM19.9 8.5C19.9 8.5 19.5 8.9 19.5 8.9C19.1 8.5 19.5 8.9 19.1 8.5A0.1 0.1 0 0 1 19.5 8.1A0.1 0.1 0 0 1 19.9 8.5ZM22.9 8.5C22.9 8.5 22.5 8.9 22.5 8.9C22.1 8.5 22.5 8.9 22.1 8.5A0.1 0.1 0 0 1 22.5 8.1A0.1 0.1 0 0 1 22.9 8.5ZM24.9 8.5C24.9 8.5 24.5 8.9 24.5 8.9C24.1 8.5 24.5 8.9 24.1 8.5A0.1 0.1 0 0 1 24.5 8.1A0.1 0.1 0 0 1 24.9 8.5ZM0.9 9.5C0.9 9.5 0.5 9.9 0.5 9.9C0.1 9.5 0.5 9.9 0.1 9.5A0.1 0.1 0 0 1 0.5 9.1A0.1 0.1 0 0 1 0.9 9.5ZM5.9 9.5C5.9 9.5 5.5 9.9 5.5 9.9C5.1 9.5 5.5 9.9 5.1 9.5A0.1 0.1 0 0 1 5.5 9.1A0.1 0.1 0 0 1 5.9 9.5ZM7.9 9.5C7.9 9.5 7.5 9.9 7.5 9.9C7.1 9.5 7.5 9.9 7.1 9.5A0.1 0.1 0 0 1 7.5 9.1A0.1 0.1 0 0 1 7.9 9.5ZM8.9 9.5C8.9 9.5 8.5 9.9 8.5 9.9C8.1 9.5 8.5 9.9 8.1 9.5A0.1 0.1 0 0 1 8.5 9.1A0.1 0.1 0 0 1 8.9 9.5ZM14.9 9.5C14.9 9.5 14.5 9.9 14.5 9.9C14.1 9.5 14.5 9.9 14.1 9.5A0.1 0.1 0 0 1 14.5 9.1A0.1 0.1 0 0 1 14.9 9.5ZM17.9 9.5C17.9 9.5 17.5 9.9 17.5 9.9C17.1 9.5 17.5 9.9 17.1 9.5A0.1 0.1 0 0 1 17.5 9.1A0.1 0.1 0 0 1 17.9 9.5ZM18.9 9.5C18.9 9.5 18.5 9.9 18.5 9.9C18.1 9.5 18.5 9.9 18.1 9.5A0.1 0.1 0 0 1 18.5 9.1A0.1 0.1 0 0 1 18.9 9.5ZM19.9 9.5C19.9 9.5 19.5 9.9 19.5 9.9C19.1 9.5 19.5 9.9 19.1 9.5A0.1 0.1 0 0 1 19.5 9.1A0.1 0.1 0 0 1 19.9 9.5ZM20.9 9.5C20.9 9.5 20.5 9.9 20.5 9.9C20.1 9.5 20.5 9.9 20.1 9.5A0.1 0.1 0 0 1 20.5 9.1A0.1 0.1 0 0 1 20.9 9.5ZM21.9 9.5C21.9 9.5 21.5 9.9 21.5 9.9C21.1 9.5 21.5 9.9 21.1 9.5A0.1 0.1 0 0 1 21.5 9.1A0.1 0.1 0 0 1 21.9 9.5ZM1.9 10.5C1.9 10.5 1.5 10.9 1.5 10.9C1.1 10.5 1.5 10.9 1.1 10.5A0.1 0.1 0 0 1 1.5 10.1A0.1 0.1 0 0 1 1.9 10.5ZM3.9 10.5C3.9 10.5 3.5 10.9 3.5 10.9C3.1 10.5 3.5 10.9 3.1 10.5A0.1 0.1 0 0 1 3.5 10.1A0.1 0.1 0 0 1 3.9 10.5ZM5.9 10.5C5.9 10.5 5.5 10.9 5.5 10.9C5.1 10.5 5.5 10.9 5.1 10.5A0.1 0.1 0 0 1 5.5 10.1A0.1 0.1 0 0 1 5.9 10.5ZM6.9 10.5C6.9 10.5 6.5 10.9 6.5 10.9C6.1 10.5 6.5 10.9 6.1 10.5A0.1 0.1 0 0 1 6.5 10.1A0.1 0.1 0 0 1 6.9 10.5ZM7.9 10.5C7.9 10.5 7.5 10.9 7.5 10.9C7.1 10.5 7.5 10.9 7.1 10.5A0.1 0.1 0 0 1 7.5 10.1A0.1 0.1 0 0 1 7.9 10.5ZM8.9 10.5C8.9 10.5 8.5 10.9 8.5 10.9C8.1 10.5 8.5 10.9 8.1 10.5A0.1 0.1 0 0 1 8.5 10.1A0.1 0.1 0 0 1 8.9 10.5ZM11.9 10.5C11.9 10.5 11.5 10.9 11.5 10.9C11.1 10.5 11.5 10.9 11.1 10.5A0.1 0.1 0 0 1 11.5 10.1A0.1 0.1 0 0 1 11.9 10.5ZM12.9 10.5C12.9 10.5 12.5 10.9 12.5 10.9C12.1 10.5 12.5 10.9 12.1 10.5A0.1 0.1 0 0 1 12.5 10.1A0.1 0.1 0 0 1 12.9 10.5ZM15.9 10.5C15.9 10.5 15.5 10.9 15.5 10.9C15.1 10.5 15.5 10.9 15.1 10.5A0.1 0.1 0 0 1 15.5 10.1A0.1 0.1 0 0 1 15.9 10.5ZM18.9 10.5C18.9 10.5 18.5 10.9 18.5 10.9C18.1 10.5 18.5 10.9 18.1 10.5A0.1 0.1 0 0 1 18.5 10.1A0.1 0.1 0 0 1 18.9 10.5ZM19.9 10.5C19.9 10.5 19.5 10.9 19.5 10.9C19.1 10.5 19.5 10.9 19.1 10.5A0.1 0.1 0 0 1 19.5 10.1A0.1 0.1 0 0 1 19.9 10.5ZM23.9 10.5C23.9 10.5 23.5 10.9 23.5 10.9C23.1 10.5 23.5 10.9 23.1 10.5A0.1 0.1 0 0 1 23.5 10.1A0.1 0.1 0 0 1 23.9 10.5ZM2.9 11.5C2.9 11.5 2.5 11.9 2.5 11.9C2.1 11.5 2.5 11.9 2.1 11.5A0.1 0.1 0 0 1 2.5 11.1A0.1 0.1 0 0 1 2.9 11.5ZM3.9 11.5C3.9 11.5 3.5 11.9 3.5 11.9C3.1 11.5 3.5 11.9 3.1 11.5A0.1 0.1 0 0 1 3.5 11.1A0.1 0.1 0 0 1 3.9 11.5ZM4.9 11.5C4.9 11.5 4.5 11.9 4.5 11.9C4.1 11.5 4.5 11.9 4.1 11.5A0.1 0.1 0 0 1 4.5 11.1A0.1 0.1 0 0 1 4.9 11.5ZM7.9 11.5C7.9 11.5 7.5 11.9 7.5 11.9C7.1 11.5 7.5 11.9 7.1 11.5A0.1 0.1 0 0 1 7.5 11.1A0.1 0.1 0 0 1 7.9 11.5ZM9.9 11.5C9.9 11.5 9.5 11.9 9.5 11.9C9.1 11.5 9.5 11.9 9.1 11.5A0.1 0.1 0 0 1 9.5 11.1A0.1 0.1 0 0 1 9.9 11.5ZM10.9 11.5C10.9 11.5 10.5 11.9 10.5 11.9C10.1 11.5 10.5 11.9 10.1 11.5A0.1 0.1 0 0 1 10.5 11.1A0.1 0.1 0 0 1 10.9 11.5ZM13.9 11.5C13.9 11.5 13.5 11.9 13.5 11.9C13.1 11.5 13.5 11.9 13.1 11.5A0.1 0.1 0 0 1 13.5 11.1A0.1 0.1 0 0 1 13.9 11.5ZM15.9 11.5C15.9 11.5 15.5 11.9 15.5 11.9C15.1 11.5 15.5 11.9 15.1 11.5A0.1 0.1 0 0 1 15.5 11.1A0.1 0.1 0 0 1 15.9 11.5ZM16.9 11.5C16.9 11.5 16.5 11.9 16.5 11.9C16.1 11.5 16.5 11.9 16.1 11.5A0.1 0.1 0 0 1 16.5 11.1A0.1 0.1 0 0 1 16.9 11.5ZM17.9 11.5C17.9 11.5 17.5 11.9 17.5 11.9C17.1 11.5 17.5 11.9 17.1 11.5A0.1 0.1 0 0 1 17.5 11.1A0.1 0.1 0 0 1 17.9 11.5ZM18.9 11.5C18.9 11.5 18.5 11.9 18.5 11.9C18.1 11.5 18.5 11.9 18.1 11.5A0.1 0.1 0 0 1 18.5 11.1A0.1 0.1 0 0 1 18.9 11.5ZM21.9 11.5C21.9 11.5 21.5 11.9 21.5 11.9C21.1 11.5 21.5 11.9 21.1 11.5A0.1 0.1 0 0 1 21.5 11.1A0.1 0.1 0 0 1 21.9 11.5ZM24.9 11.5C24.9 11.5 24.5 11.9 24.5 11.9C24.1 11.5 24.5 11.9 24.1 11.5A0.1 0.1 0 0 1 24.5 11.1A0.1 0.1 0 0 1 24.9 11.5ZM2.9 12.5C2.9 12.5 2.5 12.9 2.5 12.9C2.1 12.5 2.5 12.9 2.1 12.5A0.1 0.1 0 0 1 2.5 12.1A0.1 0.1 0 0 1 2.9 12.5ZM4.9 12.5C4.9 12.5 4.5 12.9 4.5 12.9C4.1 12.5 4.5 12.9 4.1 12.5A0.1 0.1 0 0 1 4.5 12.1A0.1 0.1 0 0 1 4.9 12.5ZM6.9 12.5C6.9 12.5 6.5 12.9 6.5 12.9C6.1 12.5 6.5 12.9 6.1 12.5A0.1 0.1 0 0 1 6.5 12.1A0.1 0.1 0 0 1 6.9 12.5ZM8.9 12.5C8.9 12.5 8.5 12.9 8.5 12.9C8.1 12.5 8.5 12.9 8.1 12.5A0.1 0.1 0 0 1 8.5 12.1A0.1 0.1 0 0 1 8.9 12.5ZM10.9 12.5C10.9 12.5 10.5 12.9 10.5 12.9C10.1 12.5 10.5 12.9 10.1 12.5A0.1 0.1 0 0 1 10.5 12.1A0.1 0.1 0 0 1 10.9 12.5ZM11.9 12.5C11.9 12.5 11.5 12.9 11.5 12.9C11.1 12.5 11.5 12.9 11.1 12.5A0.1 0.1 0 0 1 11.5 12.1A0.1 0.1 0 0 1 11.9 12.5ZM12.9 12.5C12.9 12.5 12.5 12.9 12.5 12.9C12.1 12.5 12.5 12.9 12.1 12.5A0.1 0.1 0 0 1 12.5 12.1A0.1 0.1 0 0 1 12.9 12.5ZM15.9 12.5C15.9 12.5 15.5 12.9 15.5 12.9C15.1 12.5 15.5 12.9 15.1 12.5A0.1 0.1 0 0 1 15.5 12.1A0.1 0.1 0 0 1 15.9 12.5ZM16.9 12.5C16.9 12.5 16.5 12.9 16.5 12.9C16.1 12.5 16.5 12.9 16.1 12.5A0.1 0.1 0 0 1 16.5 12.1A0.1 0.1 0 0 1 16.9 12.5ZM18.9 12.5C18.9 12.5 18.5 12.9 18.5 12.9C18.1 12.5 18.5 12.9 18.1 12.5A0.1 0.1 0 0 1 18.5 12.1A0.1 0.1 0 0 1 18.9 12.5ZM21.9 12.5C21.9 12.5 21.5 12.9 21.5 12.9C21.1 12.5 21.5 12.9 21.1 12.5A0.1 0.1 0 0 1 21.5 12.1A0.1 0.1 0 0 1 21.9 12.5ZM22.9 12.5C22.9 12.5 22.5 12.9 22.5 12.9C22.1 12.5 22.5 12.9 22.1 12.5A0.1 0.1 0 0 1 22.5 12.1A0.1 0.1 0 0 1 22.9 12.5ZM24.9 12.5C24.9 12.5 24.5 12.9 24.5 12.9C24.1 12.5 24.5 12.9 24.1 12.5A0.1 0.1 0 0 1 24.5 12.1A0.1 0.1 0 0 1 24.9 12.5ZM1.9 13.5C1.9 13.5 1.5 13.9 1.5 13.9C1.1 13.5 1.5 13.9 1.1 13.5A0.1 0.1 0 0 1 1.5 13.1A0.1 0.1 0 0 1 1.9 13.5ZM3.9 13.5C3.9 13.5 3.5 13.9 3.5 13.9C3.1 13.5 3.5 13.9 3.1 13.5A0.1 0.1 0 0 1 3.5 13.1A0.1 0.1 0 0 1 3.9 13.5ZM4.9 13.5C4.9 13.5 4.5 13.9 4.5 13.9C4.1 13.5 4.5 13.9 4.1 13.5A0.1 0.1 0 0 1 4.5 13.1A0.1 0.1 0 0 1 4.9 13.5ZM5.9 13.5C5.9 13.5 5.5 13.9 5.5 13.9C5.1 13.5 5.5 13.9 5.1 13.5A0.1 0.1 0 0 1 5.5 13.1A0.1 0.1 0 0 1 5.9 13.5ZM7.9 13.5C7.9 13.5 7.5 13.9 7.5 13.9C7.1 13.5 7.5 13.9 7.1 13.5A0.1 0.1 0 0 1 7.5 13.1A0.1 0.1 0 0 1 7.9 13.5ZM9.9 13.5C9.9 13.5 9.5 13.9 9.5 13.9C9.1 13.5 9.5 13.9 9.1 13.5A0.1 0.1 0 0 1 9.5 13.1A0.1 0.1 0 0 1 9.9 13.5ZM14.9 13.5C14.9 13.5 14.5 13.9 14.5 13.9C14.1 13.5 14.5 13.9 14.1 13.5A0.1 0.1 0 0 1 14.5 13.1A0.1 0.1 0 0 1 14.9 13.5ZM15.9 13.5C15.9 13.5 15.5 13.9 15.5 13.9C15.1 13.5 15.5 13.9 15.1 13.5A0.1 0.1 0 0 1 15.5 13.1A0.1 0.1 0 0 1 15.9 13.5ZM16.9 13.5C16.9 13.5 16.5 13.9 16.5 13.9C16.1 13.5 16.5 13.9 16.1 13.5A0.1 0.1 0 0 1 16.5 13.1A0.1 0.1 0 0 1 16.9 13.5ZM18.9 13.5C18.9 13.5 18.5 13.9 18.5 13.9C18.1 13.5 18.5 13.9 18.1 13.5A0.1 0.1 0 0 1 18.5 13.1A0.1 0.1 0 0 1 18.9 13.5ZM19.9 13.5C19.9 13.5 19.5 13.9 19.5 13.9C19.1 13.5 19.5 13.9 19.1 13.5A0.1 0.1 0 0 1 19.5 13.1A0.1 0.1 0 0 1 19.9 13.5ZM20.9 13.5C20.9 13.5 20.5 13.9 20.5 13.9C20.1 13.5 20.5 13.9 20.1 13.5A0.1 0.1 0 0 1 20.5 13.1A0.1 0.1 0 0 1 20.9 13.5ZM21.9 13.5C21.9 13.5 21.5 13.9 21.5 13.9C21.1 13.5 21.5 13.9 21.1 13.5A0.1 0.1 0 0 1 21.5 13.1A0.1 0.1 0 0 1 21.9 13.5ZM0.9 14.5C0.9 14.5 0.5 14.9 0.5 14.9C0.1 14.5 0.5 14.9 0.1 14.5A0.1 0.1 0 0 1 0.5 14.1A0.1 0.1 0 0 1 0.9 14.5ZM1.9 14.5C1.9 14.5 1.5 14.9 1.5 14.9C1.1 14.5 1.5 14.9 1.1 14.5A0.1 0.1 0 0 1 1.5 14.1A0.1 0.1 0 0 1 1.9 14.5ZM2.9 14.5C2.9 14.5 2.5 14.9 2.5 14.9C2.1 14.5 2.5 14.9 2.1 14.5A0.1 0.1 0 0 1 2.5 14.1A0.1 0.1 0 0 1 2.9 14.5ZM3.9 14.5C3.9 14.5 3.5 14.9 3.5 14.9C3.1 14.5 3.5 14.9 3.1 14.5A0.1 0.1 0 0 1 3.5 14.1A0.1 0.1 0 0 1 3.9 14.5ZM5.9 14.5C5.9 14.5 5.5 14.9 5.5 14.9C5.1 14.5 5.5 14.9 5.1 14.5A0.1 0.1 0 0 1 5.5 14.1A0.1 0.1 0 0 1 5.9 14.5ZM6.9 14.5C6.9 14.5 6.5 14.9 6.5 14.9C6.1 14.5 6.5 14.9 6.1 14.5A0.1 0.1 0 0 1 6.5 14.1A0.1 0.1 0 0 1 6.9 14.5ZM7.9 14.5C7.9 14.5 7.5 14.9 7.5 14.9C7.1 14.5 7.5 14.9 7.1 14.5A0.1 0.1 0 0 1 7.5 14.1A0.1 0.1 0 0 1 7.9 14.5ZM8.9 14.5C8.9 14.5 8.5 14.9 8.5 14.9C8.1 14.5 8.5 14.9 8.1 14.5A0.1 0.1 0 0 1 8.5 14.1A0.1 0.1 0 0 1 8.9 14.5ZM11.9 14.5C11.9 14.5 11.5 14.9 11.5 14.9C11.1 14.5 11.5 14.9 11.1 14.5A0.1 0.1 0 0 1 11.5 14.1A0.1 0.1 0 0 1 11.9 14.5ZM12.9 14.5C12.9 14.5 12.5 14.9 12.5 14.9C12.1 14.5 12.5 14.9 12.1 14.5A0.1 0.1 0 0 1 12.5 14.1A0.1 0.1 0 0 1 12.9 14.5ZM14.9 14.5C14.9 14.5 14.5 14.9 14.5 14.9C14.1 14.5 14.5 14.9 14.1 14.5A0.1 0.1 0 0 1 14.5 14.1A0.1 0.1 0 0 1 14.9 14.5ZM16.9 14.5C16.9 14.5 16.5 14.9 16.5 14.9C16.1 14.5 16.5 14.9 16.1 14.5A0.1 0.1 0 0 1 16.5 14.1A0.1 0.1 0 0 1 16.9 14.5ZM18.9 14.5C18.9 14.5 18.5 14.9 18.5 14.9C18.1 14.5 18.5 14.9 18.1 14.5A0.1 0.1 0 0 1 18.5 14.1A0.1 0.1 0 0 1 18.9 14.5ZM19.9 14.5C19.9 14.5 19.5 14.9 19.5 14.9C19.1 14.5 19.5 14.9 19.1 14.5A0.1 0.1 0 0 1 19.5 14.1A0.1 0.1 0 0 1 19.9 14.5ZM23.9 14.5C23.9 14.5 23.5 14.9 23.5 14.9C23.1 14.5 23.5 14.9 23.1 14.5A0.1 0.1 0 0 1 23.5 14.1A0.1 0.1 0 0 1 23.9 14.5ZM4.9 15.5C4.9 15.5 4.5 15.9 4.5 15.9C4.1 15.5 4.5 15.9 4.1 15.5A0.1 0.1 0 0 1 4.5 15.1A0.1 0.1 0 0 1 4.9 15.5ZM8.9 15.5C8.9 15.5 8.5 15.9 8.5 15.9C8.1 15.5 8.5 15.9 8.1 15.5A0.1 0.1 0 0 1 8.5 15.1A0.1 0.1 0 0 1 8.9 15.5ZM9.9 15.5C9.9 15.5 9.5 15.9 9.5 15.9C9.1 15.5 9.5 15.9 9.1 15.5A0.1 0.1 0 0 1 9.5 15.1A0.1 0.1 0 0 1 9.9 15.5ZM10.9 15.5C10.9 15.5 10.5 15.9 10.5 15.9C10.1 15.5 10.5 15.9 10.1 15.5A0.1 0.1 0 0 1 10.5 15.1A0.1 0.1 0 0 1 10.9 15.5ZM14.9 15.5C14.9 15.5 14.5 15.9 14.5 15.9C14.1 15.5 14.5 15.9 14.1 15.5A0.1 0.1 0 0 1 14.5 15.1A0.1 0.1 0 0 1 14.9 15.5ZM15.9 15.5C15.9 15.5 15.5 15.9 15.5 15.9C15.1 15.5 15.5 15.9 15.1 15.5A0.1 0.1 0 0 1 15.5 15.1A0.1 0.1 0 0 1 15.9 15.5ZM18.9 15.5C18.9 15.5 18.5 15.9 18.5 15.9C18.1 15.5 18.5 15.9 18.1 15.5A0.1 0.1 0 0 1 18.5 15.1A0.1 0.1 0 0 1 18.9 15.5ZM21.9 15.5C21.9 15.5 21.5 15.9 21.5 15.9C21.1 15.5 21.5 15.9 21.1 15.5A0.1 0.1 0 0 1 21.5 15.1A0.1 0.1 0 0 1 21.9 15.5ZM23.9 15.5C23.9 15.5 23.5 15.9 23.5 15.9C23.1 15.5 23.5 15.9 23.1 15.5A0.1 0.1 0 0 1 23.5 15.1A0.1 0.1 0 0 1 23.9 15.5ZM0.9 16.5C0.9 16.5 0.5 16.9 0.5 16.9C0.1 16.5 0.5 16.9 0.1 16.5A0.1 0.1 0 0 1 0.5 16.1A0.1 0.1 0 0 1 0.9 16.5ZM1.9 16.5C1.9 16.5 1.5 16.9 1.5 16.9C1.1 16.5 1.5 16.9 1.1 16.5A0.1 0.1 0 0 1 1.5 16.1A0.1 0.1 0 0 1 1.9 16.5ZM2.9 16.5C2.9 16.5 2.5 16.9 2.5 16.9C2.1 16.5 2.5 16.9 2.1 16.5A0.1 0.1 0 0 1 2.5 16.1A0.1 0.1 0 0 1 2.9 16.5ZM3.9 16.5C3.9 16.5 3.5 16.9 3.5 16.9C3.1 16.5 3.5 16.9 3.1 16.5A0.1 0.1 0 0 1 3.5 16.1A0.1 0.1 0 0 1 3.9 16.5ZM4.9 16.5C4.9 16.5 4.5 16.9 4.5 16.9C4.1 16.5 4.5 16.9 4.1 16.5A0.1 0.1 0 0 1 4.5 16.1A0.1 0.1 0 0 1 4.9 16.5ZM5.9 16.5C5.9 16.5 5.5 16.9 5.5 16.9C5.1 16.5 5.5 16.9 5.1 16.5A0.1 0.1 0 0 1 5.5 16.1A0.1 0.1 0 0 1 5.9 16.5ZM6.9 16.5C6.9 16.5 6.5 16.9 6.5 16.9C6.1 16.5 6.5 16.9 6.1 16.5A0.1 0.1 0 0 1 6.5 16.1A0.1 0.1 0 0 1 6.9 16.5ZM7.9 16.5C7.9 16.5 7.5 16.9 7.5 16.9C7.1 16.5 7.5 16.9 7.1 16.5A0.1 0.1 0 0 1 7.5 16.1A0.1 0.1 0 0 1 7.9 16.5ZM9.9 16.5C9.9 16.5 9.5 16.9 9.5 16.9C9.1 16.5 9.5 16.9 9.1 16.5A0.1 0.1 0 0 1 9.5 16.1A0.1 0.1 0 0 1 9.9 16.5ZM11.9 16.5C11.9 16.5 11.5 16.9 11.5 16.9C11.1 16.5 11.5 16.9 11.1 16.5A0.1 0.1 0 0 1 11.5 16.1A0.1 0.1 0 0 1 11.9 16.5ZM14.9 16.5C14.9 16.5 14.5 16.9 14.5 16.9C14.1 16.5 14.5 16.9 14.1 16.5A0.1 0.1 0 0 1 14.5 16.1A0.1 0.1 0 0 1 14.9 16.5ZM15.9 16.5C15.9 16.5 15.5 16.9 15.5 16.9C15.1 16.5 15.5 16.9 15.1 16.5A0.1 0.1 0 0 1 15.5 16.1A0.1 0.1 0 0 1 15.9 16.5ZM16.9 16.5C16.9 16.5 16.5 16.9 16.5 16.9C16.1 16.5 16.5 16.9 16.1 16.5A0.1 0.1 0 0 1 16.5 16.1A0.1 0.1 0 0 1 16.9 16.5ZM17.9 16.5C17.9 16.5 17.5 16.9 17.5 16.9C17.1 16.5 17.5 16.9 17.1 16.5A0.1 0.1 0 0 1 17.5 16.1A0.1 0.1 0 0 1 17.9 16.5ZM18.9 16.5C18.9 16.5 18.5 16.9 18.5 16.9C18.1 16.5 18.5 16.9 18.1 16.5A0.1 0.1 0 0 1 18.5 16.1A0.1 0.1 0 0 1 18.9 16.5ZM19.9 16.5C19.9 16.5 19.5 16.9 19.5 16.9C19.1 16.5 19.5 16.9 19.1 16.5A0.1 0.1 0 0 1 19.5 16.1A0.1 0.1 0 0 1 19.9 16.5ZM20.9 16.5C20.9 16.5 20.5 16.9 20.5 16.9C20.1 16.5 20.5 16.9 20.1 16.5A0.1 0.1 0 0 1 20.5 16.1A0.1 0.1 0 0 1 20.9 16.5ZM21.9 16.5C21.9 16.5 21.5 16.9 21.5 16.9C21.1 16.5 21.5 16.9 21.1 16.5A0.1 0.1 0 0 1 21.5 16.1A0.1 0.1 0 0 1 21.9 16.5ZM22.9 16.5C22.9 16.5 22.5 16.9 22.5 16.9C22.1 16.5 22.5 16.9 22.1 16.5A0.1 0.1 0 0 1 22.5 16.1A0.1 0.1 0 0 1 22.9 16.5ZM23.9 16.5C23.9 16.5 23.5 16.9 23.5 16.9C23.1 16.5 23.5 16.9 23.1 16.5A0.1 0.1 0 0 1 23.5 16.1A0.1 0.1 0 0 1 23.9 16.5ZM24.9 16.5C24.9 16.5 24.5 16.9 24.5 16.9C24.1 16.5 24.5 16.9 24.1 16.5A0.1 0.1 0 0 1 24.5 16.1A0.1 0.1 0 0 1 24.9 16.5ZM8.9 17.5C8.9 17.5 8.5 17.9 8.5 17.9C8.1 17.5 8.5 17.9 8.1 17.5A0.1 0.1 0 0 1 8.5 17.1A0.1 0.1 0 0 1 8.9 17.5ZM9.9 17.5C9.9 17.5 9.5 17.9 9.5 17.9C9.1 17.5 9.5 17.9 9.1 17.5A0.1 0.1 0 0 1 9.5 17.1A0.1 0.1 0 0 1 9.9 17.5ZM10.9 17.5C10.9 17.5 10.5 17.9 10.5 17.9C10.1 17.5 10.5 17.9 10.1 17.5A0.1 0.1 0 0 1 10.5 17.1A0.1 0.1 0 0 1 10.9 17.5ZM12.9 17.5C12.9 17.5 12.5 17.9 12.5 17.9C12.1 17.5 12.5 17.9 12.1 17.5A0.1 0.1 0 0 1 12.5 17.1A0.1 0.1 0 0 1 12.9 17.5ZM15.9 17.5C15.9 17.5 15.5 17.9 15.5 17.9C15.1 17.5 15.5 17.9 15.1 17.5A0.1 0.1 0 0 1 15.5 17.1A0.1 0.1 0 0 1 15.9 17.5ZM16.9 17.5C16.9 17.5 16.5 17.9 16.5 17.9C16.1 17.5 16.5 17.9 16.1 17.5A0.1 0.1 0 0 1 16.5 17.1A0.1 0.1 0 0 1 16.9 17.5ZM20.9 17.5C20.9 17.5 20.5 17.9 20.5 17.9C20.1 17.5 20.5 17.9 20.1 17.5A0.1 0.1 0 0 1 20.5 17.1A0.1 0.1 0 0 1 20.9 17.5ZM21.9 17.5C21.9 17.5 21.5 17.9 21.5 17.9C21.1 17.5 21.5 17.9 21.1 17.5A0.1 0.1 0 0 1 21.5 17.1A0.1 0.1 0 0 1 21.9 17.5ZM8.9 18.5C8.9 18.5 8.5 18.9 8.5 18.9C8.1 18.5 8.5 18.9 8.1 18.5A0.1 0.1 0 0 1 8.5 18.1A0.1 0.1 0 0 1 8.9 18.5ZM10.9 18.5C10.9 18.5 10.5 18.9 10.5 18.9C10.1 18.5 10.5 18.9 10.1 18.5A0.1 0.1 0 0 1 10.5 18.1A0.1 0.1 0 0 1 10.9 18.5ZM12.9 18.5C12.9 18.5 12.5 18.9 12.5 18.9C12.1 18.5 12.5 18.9 12.1 18.5A0.1 0.1 0 0 1 12.5 18.1A0.1 0.1 0 0 1 12.9 18.5ZM16.9 18.5C16.9 18.5 16.5 18.9 16.5 18.9C16.1 18.5 16.5 18.9 16.1 18.5A0.1 0.1 0 0 1 16.5 18.1A0.1 0.1 0 0 1 16.9 18.5ZM18.9 18.5C18.9 18.5 18.5 18.9 18.5 18.9C18.1 18.5 18.5 18.9 18.1 18.5A0.1 0.1 0 0 1 18.5 18.1A0.1 0.1 0 0 1 18.9 18.5ZM20.9 18.5C20.9 18.5 20.5 18.9 20.5 18.9C20.1 18.5 20.5 18.9 20.1 18.5A0.1 0.1 0 0 1 20.5 18.1A0.1 0.1 0 0 1 20.9 18.5ZM24.9 18.5C24.9 18.5 24.5 18.9 24.5 18.9C24.1 18.5 24.5 18.9 24.1 18.5A0.1 0.1 0 0 1 24.5 18.1A0.1 0.1 0 0 1 24.9 18.5ZM9.9 19.5C9.9 19.5 9.5 19.9 9.5 19.9C9.1 19.5 9.5 19.9 9.1 19.5A0.1 0.1 0 0 1 9.5 19.1A0.1 0.1 0 0 1 9.9 19.5ZM10.9 19.5C10.9 19.5 10.5 19.9 10.5 19.9C10.1 19.5 10.5 19.9 10.1 19.5A0.1 0.1 0 0 1 10.5 19.1A0.1 0.1 0 0 1 10.9 19.5ZM11.9 19.5C11.9 19.5 11.5 19.9 11.5 19.9C11.1 19.5 11.5 19.9 11.1 19.5A0.1 0.1 0 0 1 11.5 19.1A0.1 0.1 0 0 1 11.9 19.5ZM12.9 19.5C12.9 19.5 12.5 19.9 12.5 19.9C12.1 19.5 12.5 19.9 12.1 19.5A0.1 0.1 0 0 1 12.5 19.1A0.1 0.1 0 0 1 12.9 19.5ZM15.9 19.5C15.9 19.5 15.5 19.9 15.5 19.9C15.1 19.5 15.5 19.9 15.1 19.5A0.1 0.1 0 0 1 15.5 19.1A0.1 0.1 0 0 1 15.9 19.5ZM16.9 19.5C16.9 19.5 16.5 19.9 16.5 19.9C16.1 19.5 16.5 19.9 16.1 19.5A0.1 0.1 0 0 1 16.5 19.1A0.1 0.1 0 0 1 16.9 19.5ZM20.9 19.5C20.9 19.5 20.5 19.9 20.5 19.9C20.1 19.5 20.5 19.9 20.1 19.5A0.1 0.1 0 0 1 20.5 19.1A0.1 0.1 0 0 1 20.9 19.5ZM24.9 19.5C24.9 19.5 24.5 19.9 24.5 19.9C24.1 19.5 24.5 19.9 24.1 19.5A0.1 0.1 0 0 1 24.5 19.1A0.1 0.1 0 0 1 24.9 19.5ZM9.9 20.5C9.9 20.5 9.5 20.9 9.5 20.9C9.1 20.5 9.5 20.9 9.1 20.5A0.1 0.1 0 0 1 9.5 20.1A0.1 0.1 0 0 1 9.9 20.5ZM10.9 20.5C10.9 20.5 10.5 20.9 10.5 20.9C10.1 20.5 10.5 20.9 10.1 20.5A0.1 0.1 0 0 1 10.5 20.1A0.1 0.1 0 0 1 10.9 20.5ZM11.9 20.5C11.9 20.5 11.5 20.9 11.5 20.9C11.1 20.5 11.5 20.9 11.1 20.5A0.1 0.1 0 0 1 11.5 20.1A0.1 0.1 0 0 1 11.9 20.5ZM13.9 20.5C13.9 20.5 13.5 20.9 13.5 20.9C13.1 20.5 13.5 20.9 13.1 20.5A0.1 0.1 0 0 1 13.5 20.1A0.1 0.1 0 0 1 13.9 20.5ZM14.9 20.5C14.9 20.5 14.5 20.9 14.5 20.9C14.1 20.5 14.5 20.9 14.1 20.5A0.1 0.1 0 0 1 14.5 20.1A0.1 0.1 0 0 1 14.9 20.5ZM15.9 20.5C15.9 20.5 15.5 20.9 15.5 20.9C15.1 20.5 15.5 20.9 15.1 20.5A0.1 0.1 0 0 1 15.5 20.1A0.1 0.1 0 0 1 15.9 20.5ZM16.9 20.5C16.9 20.5 16.5 20.9 16.5 20.9C16.1 20.5 16.5 20.9 16.1 20.5A0.1 0.1 0 0 1 16.5 20.1A0.1 0.1 0 0 1 16.9 20.5ZM17.9 20.5C17.9 20.5 17.5 20.9 17.5 20.9C17.1 20.5 17.5 20.9 17.1 20.5A0.1 0.1 0 0 1 17.5 20.1A0.1 0.1 0 0 1 17.9 20.5ZM18.9 20.5C18.9 20.5 18.5 20.9 18.5 20.9C18.1 20.5 18.5 20.9 18.1 20.5A0.1 0.1 0 0 1 18.5 20.1A0.1 0.1 0 0 1 18.9 20.5ZM19.9 20.5C19.9 20.5 19.5 20.9 19.5 20.9C19.1 20.5 19.5 20.9 19.1 20.5A0.1 0.1 0 0 1 19.5 20.1A0.1 0.1 0 0 1 19.9 20.5ZM20.9 20.5C20.9 20.5 20.5 20.9 20.5 20.9C20.1 20.5 20.5 20.9 20.1 20.5A0.1 0.1 0 0 1 20.5 20.1A0.1 0.1 0 0 1 20.9 20.5ZM21.9 20.5C21.9 20.5 21.5 20.9 21.5 20.9C21.1 20.5 21.5 20.9 21.1 20.5A0.1 0.1 0 0 1 21.5 20.1A0.1 0.1 0 0 1 21.9 20.5ZM22.9 20.5C22.9 20.5 22.5 20.9 22.5 20.9C22.1 20.5 22.5 20.9 22.1 20.5A0.1 0.1 0 0 1 22.5 20.1A0.1 0.1 0 0 1 22.9 20.5ZM23.9 20.5C23.9 20.5 23.5 20.9 23.5 20.9C23.1 20.5 23.5 20.9 23.1 20.5A0.1 0.1 0 0 1 23.5 20.1A0.1 0.1 0 0 1 23.9 20.5ZM9.9 21.5C9.9 21.5 9.5 21.9 9.5 21.9C9.1 21.5 9.5 21.9 9.1 21.5A0.1 0.1 0 0 1 9.5 21.1A0.1 0.1 0 0 1 9.9 21.5ZM14.9 21.5C14.9 21.5 14.5 21.9 14.5 21.9C14.1 21.5 14.5 21.9 14.1 21.5A0.1 0.1 0 0 1 14.5 21.1A0.1 0.1 0 0 1 14.9 21.5ZM15.9 21.5C15.9 21.5 15.5 21.9 15.5 21.9C15.1 21.5 15.5 21.9 15.1 21.5A0.1 0.1 0 0 1 15.5 21.1A0.1 0.1 0 0 1 15.9 21.5ZM16.9 21.5C16.9 21.5 16.5 21.9 16.5 21.9C16.1 21.5 16.5 21.9 16.1 21.5A0.1 0.1 0 0 1 16.5 21.1A0.1 0.1 0 0 1 16.9 21.5ZM18.9 21.5C18.9 21.5 18.5 21.9 18.5 21.9C18.1 21.5 18.5 21.9 18.1 21.5A0.1 0.1 0 0 1 18.5 21.1A0.1 0.1 0 0 1 18.9 21.5ZM20.9 21.5C20.9 21.5 20.5 21.9 20.5 21.9C20.1 21.5 20.5 21.9 20.1 21.5A0.1 0.1 0 0 1 20.5 21.1A0.1 0.1 0 0 1 20.9 21.5ZM21.9 21.5C21.9 21.5 21.5 21.9 21.5 21.9C21.1 21.5 21.5 21.9 21.1 21.5A0.1 0.1 0 0 1 21.5 21.1A0.1 0.1 0 0 1 21.9 21.5ZM23.9 21.5C23.9 21.5 23.5 21.9 23.5 21.9C23.1 21.5 23.5 21.9 23.1 21.5A0.1 0.1 0 0 1 23.5 21.1A0.1 0.1 0 0 1 23.9 21.5ZM8.9 22.5C8.9 22.5 8.5 22.9 8.5 22.9C8.1 22.5 8.5 22.9 8.1 22.5A0.1 0.1 0 0 1 8.5 22.1A0.1 0.1 0 0 1 8.9 22.5ZM9.9 22.5C9.9 22.5 9.5 22.9 9.5 22.9C9.1 22.5 9.5 22.9 9.1 22.5A0.1 0.1 0 0 1 9.5 22.1A0.1 0.1 0 0 1 9.9 22.5ZM16.9 22.5C16.9 22.5 16.5 22.9 16.5 22.9C16.1 22.5 16.5 22.9 16.1 22.5A0.1 0.1 0 0 1 16.5 22.1A0.1 0.1 0 0 1 16.9 22.5ZM18.9 22.5C18.9 22.5 18.5 22.9 18.5 22.9C18.1 22.5 18.5 22.9 18.1 22.5A0.1 0.1 0 0 1 18.5 22.1A0.1 0.1 0 0 1 18.9 22.5ZM19.9 22.5C19.9 22.5 19.5 22.9 19.5 22.9C19.1 22.5 19.5 22.9 19.1 22.5A0.1 0.1 0 0 1 19.5 22.1A0.1 0.1 0 0 1 19.9 22.5ZM23.9 22.5C23.9 22.5 23.5 22.9 23.5 22.9C23.1 22.5 23.5 22.9 23.1 22.5A0.1 0.1 0 0 1 23.5 22.1A0.1 0.1 0 0 1 23.9 22.5ZM24.9 22.5C24.9 22.5 24.5 22.9 24.5 22.9C24.1 22.5 24.5 22.9 24.1 22.5A0.1 0.1 0 0 1 24.5 22.1A0.1 0.1 0 0 1 24.9 22.5ZM10.9 23.5C10.9 23.5 10.5 23.9 10.5 23.9C10.1 23.5 10.5 23.9 10.1 23.5A0.1 0.1 0 0 1 10.5 23.1A0.1 0.1 0 0 1 10.9 23.5ZM12.9 23.5C12.9 23.5 12.5 23.9 12.5 23.9C12.1 23.5 12.5 23.9 12.1 23.5A0.1 0.1 0 0 1 12.5 23.1A0.1 0.1 0 0 1 12.9 23.5ZM15.9 23.5C15.9 23.5 15.5 23.9 15.5 23.9C15.1 23.5 15.5 23.9 15.1 23.5A0.1 0.1 0 0 1 15.5 23.1A0.1 0.1 0 0 1 15.9 23.5ZM17.9 23.5C17.9 23.5 17.5 23.9 17.5 23.9C17.1 23.5 17.5 23.9 17.1 23.5A0.1 0.1 0 0 1 17.5 23.1A0.1 0.1 0 0 1 17.9 23.5ZM19.9 23.5C19.9 23.5 19.5 23.9 19.5 23.9C19.1 23.5 19.5 23.9 19.1 23.5A0.1 0.1 0 0 1 19.5 23.1A0.1 0.1 0 0 1 19.9 23.5ZM20.9 23.5C20.9 23.5 20.5 23.9 20.5 23.9C20.1 23.5 20.5 23.9 20.1 23.5A0.1 0.1 0 0 1 20.5 23.1A0.1 0.1 0 0 1 20.9 23.5ZM23.9 23.5C23.9 23.5 23.5 23.9 23.5 23.9C23.1 23.5 23.5 23.9 23.1 23.5A0.1 0.1 0 0 1 23.5 23.1A0.1 0.1 0 0 1 23.9 23.5ZM24.9 23.5C24.9 23.5 24.5 23.9 24.5 23.9C24.1 23.5 24.5 23.9 24.1 23.5A0.1 0.1 0 0 1 24.5 23.1A0.1 0.1 0 0 1 24.9 23.5ZM8.9 24.5C8.9 24.5 8.5 24.9 8.5 24.9C8.1 24.5 8.5 24.9 8.1 24.5A0.1 0.1 0 0 1 8.5 24.1A0.1 0.1 0 0 1 8.9 24.5ZM9.9 24.5C9.9 24.5 9.5 24.9 9.5 24.9C9.1 24.5 9.5 24.9 9.1 24.5A0.1 0.1 0 0 1 9.5 24.1A0.1 0.1 0 0 1 9.9 24.5ZM10.9 24.5C10.9 24.5 10.5 24.9 10.5 24.9C10.1 24.5 10.5 24.9 10.1 24.5A0.1 0.1 0 0 1 10.5 24.1A0.1 0.1 0 0 1 10.9 24.5ZM11.9 24.5C11.9 24.5 11.5 24.9 11.5 24.9C11.1 24.5 11.5 24.9 11.1 24.5A0.1 0.1 0 0 1 11.5 24.1A0.1 0.1 0 0 1 11.9 24.5ZM12.9 24.5C12.9 24.5 12.5 24.9 12.5 24.9C12.1 24.5 12.5 24.9 12.1 24.5A0.1 0.1 0 0 1 12.5 24.1A0.1 0.1 0 0 1 12.9 24.5ZM13.9 24.5C13.9 24.5 13.5 24.9 13.5 24.9C13.1 24.5 13.5 24.9 13.1 24.5A0.1 0.1 0 0 1 13.5 24.1A0.1 0.1 0 0 1 13.9 24.5ZM16.9 24.5C16.9 24.5 16.5 24.9 16.5 24.9C16.1 24.5 16.5 24.9 16.1 24.5A0.1 0.1 0 0 1 16.5 24.1A0.1 0.1 0 0 1 16.9 24.5ZM17.9 24.5C17.9 24.5 17.5 24.9 17.5 24.9C17.1 24.5 17.5 24.9 17.1 24.5A0.1 0.1 0 0 1 17.5 24.1A0.1 0.1 0 0 1 17.9 24.5ZM19.9 24.5C19.9 24.5 19.5 24.9 19.5 24.9C19.1 24.5 19.5 24.9 19.1 24.5A0.1 0.1 0 0 1 19.5 24.1A0.1 0.1 0 0 1 19.9 24.5ZM20.9 24.5C20.9 24.5 20.5 24.9 20.5 24.9C20.1 24.5 20.5 24.9 20.1 24.5A0.1 0.1 0 0 1 20.5 24.1A0.1 0.1 0 0 1 20.9 24.5ZM24.9 24.5C24.9 24.5 24.5 24.9 24.5 24.9C24.1 24.5 24.5 24.9 24.1 24.5A0.1 0.1 0 0 1 24.5 24.1A0.1 0.1 0 0 1 24.9 24.5Z" fill="url(#g1)"/></g></g></svg>
